<svg version="1.0" xmlns="http://www.w3.org/2000/svg"
 width="24.000000pt" height="24.000000pt" viewBox="0 0 512.000000 512.000000"
 preserveAspectRatio="xMidYMid meet">

<g transform="translate(0.000000,512.000000) scale(0.100000,-0.100000)"
fill="#4056A1" stroke="none">
<path d="M3688 4939 c-68 -35 -78 -71 -78 -274 l0 -175 300 -150 300 -150 0
325 c0 307 -1 328 -20 365 -36 71 -69 80 -282 80 -162 -1 -187 -3 -220 -21z"/>
<path d="M1300 4050 c-674 -337 -1233 -616 -1242 -621 -25 -13 -58 -82 -58
-119 0 -84 82 -157 164 -147 24 2 121 44 234 101 107 53 198 96 203 96 5 0 9
-611 9 -1540 0 -1493 1 -1542 19 -1578 11 -22 35 -46 59 -60 l40 -22 1831 0
c1816 0 1832 0 1871 20 26 13 47 34 60 60 20 39 20 56 20 1580 0 982 3 1540
10 1540 5 0 100 -45 210 -100 138 -69 213 -100 236 -100 53 0 111 34 134 80
26 51 25 95 -3 145 -22 39 -55 56 -1252 654 -930 464 -1241 615 -1275 618 -44
5 -95 -20 -1270 -607z m883 -928 c46 -16 115 -49 153 -75 65 -43 169 -142 207
-197 l17 -24 17 24 c38 55 142 154 207 197 38 26 107 60 155 77 80 28 96 30
221 30 117 0 145 -4 212 -26 125 -41 203 -91 303 -192 104 -105 158 -197 200
-341 62 -215 40 -439 -66 -649 -66 -133 -145 -233 -339 -427 -180 -181 -784
-710 -849 -743 -38 -20 -84 -20 -121 -1 -40 21 -648 543 -785 675 -271 260
-399 436 -464 637 -69 217 -46 471 62 678 57 108 201 255 302 307 135 69 223
89 377 83 85 -3 124 -9 191 -33z"/>
<path d="M1851 2845 c-156 -44 -273 -168 -322 -340 -8 -30 -14 -93 -13 -160 1
-91 5 -121 25 -176 84 -221 227 -380 744 -824 l275 -237 167 143 c543 463 704
626 802 811 62 116 76 169 76 288 0 116 -12 173 -58 264 -104 210 -356 303
-555 205 -112 -55 -217 -184 -273 -334 -31 -81 -44 -101 -84 -119 -65 -31
-166 -12 -197 37 -8 12 -26 54 -42 94 -57 149 -162 273 -273 326 -78 36 -189
45 -272 22z"/>
</g>
</svg>
