<svg version="1.0" xmlns="http://www.w3.org/2000/svg"
 width="24.000000pt" height="24.000000pt" viewBox="0 0 512.000000 512.000000"
 preserveAspectRatio="xMidYMid meet">

<g transform="translate(0.000000,512.000000) scale(0.100000,-0.100000)"
fill="#4056A1" stroke="none">
<path d="M2491 4778 c-18 -13 -75 -86 -127 -162 l-94 -140 -98 -29 c-53 -15
-127 -37 -164 -48 -80 -23 -124 -57 -137 -106 -15 -54 4 -93 117 -239 l102
-132 -3 -190 -2 -190 29 -31 c56 -59 79 -58 276 9 l175 60 110 -40 c243 -89
271 -92 331 -29 l29 31 -2 190 -3 190 102 132 c113 146 132 185 117 239 -18
67 -57 87 -316 159 l-82 23 -98 144 c-56 82 -111 152 -128 163 -41 25 -95 23
-134 -4z"/>
<path d="M963 4358 c-13 -6 -59 -64 -104 -129 -44 -65 -86 -122 -92 -127 -7
-6 -68 -27 -137 -47 -150 -45 -172 -55 -188 -90 -27 -59 -17 -85 80 -214 l93
-121 -3 -152 c-3 -138 -1 -156 17 -185 13 -21 33 -36 58 -43 35 -11 50 -7 182
39 l145 51 125 -44 c169 -60 173 -61 214 -41 60 28 69 62 61 228 l-6 142 90
118 c50 65 94 128 98 139 11 34 -5 86 -35 110 -17 15 -80 39 -165 64 l-137 39
-78 115 c-43 63 -88 123 -99 133 -25 23 -89 31 -119 15z"/>
<path d="M4070 4363 c-29 -11 -53 -39 -131 -154 l-79 -115 -137 -39 c-84 -24
-148 -49 -165 -63 -29 -24 -44 -76 -34 -110 4 -11 47 -74 97 -138 l90 -118 -3
-158 -3 -157 32 -33 c45 -44 78 -42 239 15 l130 47 145 -51 c132 -46 147 -50
182 -39 25 7 45 22 58 43 18 29 20 46 17 184 l-3 152 93 122 c99 131 109 158
77 218 -16 33 -46 46 -201 91 -60 18 -114 36 -121 42 -6 5 -48 62 -92 127 -92
133 -126 158 -191 134z"/>
<path d="M2470 2980 c-214 -34 -404 -199 -472 -410 -29 -91 -29 -249 1 -340
30 -94 87 -184 161 -254 78 -72 158 -117 260 -145 l75 -20 -76 0 c-167 -2
-377 -83 -515 -200 -158 -133 -264 -324 -294 -529 -7 -47 -10 -168 -8 -302 l3
-225 34 -63 c38 -70 69 -100 145 -140 l51 -27 725 0 725 0 51 27 c76 40 107
70 145 140 l34 63 0 275 c-1 272 -1 276 -29 365 -72 236 -227 421 -443 529
-99 49 -201 76 -317 83 l-98 6 71 18 c196 50 360 205 422 399 30 91 30 249 0
340 -60 187 -218 342 -402 394 -70 20 -180 27 -249 16z"/>
<path d="M1161 2864 c-253 -68 -410 -331 -346 -579 45 -170 180 -306 347 -349
l51 -13 -90 -6 c-180 -13 -344 -88 -473 -216 -87 -86 -146 -179 -187 -296 -28
-79 -28 -84 -28 -310 0 -221 1 -232 23 -273 35 -66 88 -119 150 -149 l57 -28
361 -3 362 -3 5 253 c4 234 6 260 30 343 53 187 146 346 283 482 46 46 84 86
84 87 0 2 -35 19 -77 39 -99 46 -176 66 -282 74 l-84 6 53 14 c250 64 409 330
345 576 -67 259 -333 419 -584 351z"/>
<path d="M3721 2864 c-253 -68 -410 -331 -346 -579 45 -170 180 -306 347 -349
l51 -13 -84 -6 c-97 -7 -181 -28 -259 -63 -111 -51 -110 -42 -17 -136 139
-139 235 -305 288 -496 19 -66 22 -112 26 -330 l5 -253 362 3 361 3 57 28 c62
30 115 83 150 149 22 41 23 52 23 273 0 226 -1 231 -28 310 -42 118 -99 209
-191 300 -128 127 -288 199 -469 212 l-90 6 53 14 c250 64 409 330 345 576
-67 259 -333 419 -584 351z"/>
</g>
</svg>
