<svg version="1.0" xmlns="http://www.w3.org/2000/svg"
 width="24.000000pt" height="24.000000pt" viewBox="0 0 512.000000 512.000000"
 preserveAspectRatio="xMidYMid meet">

<g transform="translate(0.000000,512.000000) scale(0.100000,-0.100000)"
fill="#4056A1" stroke="none">
<path d="M630 2560 l0 -2210 1930 0 1930 0 0 2210 0 2210 -1930 0 -1930 0 0
-2210z m2919 1882 c56 -40 77 -131 46 -192 -24 -47 -79 -82 -128 -83 -23 -1
-53 1 -67 5 -22 6 -45 -15 -218 -198 -168 -178 -191 -206 -182 -223 5 -11 10
-42 10 -70 0 -44 -5 -56 -36 -91 -85 -94 -217 -68 -262 52 l-19 52 -134 38
c-74 21 -140 38 -147 38 -7 0 -30 -14 -51 -30 -49 -40 -98 -48 -157 -25 -52
20 -24 34 -254 -132 l-134 -98 3 -50 c6 -119 -124 -203 -227 -145 -99 55 -109
198 -19 262 40 28 114 35 156 14 18 -10 37 -13 45 -9 8 4 86 60 175 123 l160
115 1 55 c0 95 60 160 148 160 75 0 143 -53 156 -123 l6 -34 151 -41 151 -42
31 30 c39 38 79 49 137 38 l45 -9 98 103 c295 310 288 302 276 337 -14 39 -7
103 15 136 47 71 155 89 225 37z m109 -864 c9 -9 12 -160 12 -620 l0 -608 -26
-10 c-33 -13 -345 -13 -378 0 l-26 10 0 608 c0 460 3 611 12 620 8 8 68 12
203 12 135 0 195 -4 203 -12z m-1190 -340 c9 -9 12 -121 12 -444 l0 -433 -22
-15 c-18 -13 -56 -16 -200 -16 -165 0 -180 2 -198 20 -19 19 -20 33 -20 441 0
271 4 427 10 440 10 18 23 19 208 19 141 0 201 -3 210 -12z m596 -140 c14 -19
16 -72 16 -375 0 -340 -1 -354 -20 -373 -18 -18 -33 -20 -198 -20 -144 0 -182
3 -200 16 l-22 15 0 364 c0 317 2 366 16 379 13 13 46 16 204 16 184 0 189 -1
204 -22z m-1196 -150 c9 -9 12 -90 12 -305 l0 -293 -26 -10 c-14 -6 -99 -10
-189 -10 -90 0 -175 4 -189 10 l-26 10 0 293 c0 215 3 296 12 305 8 8 68 12
203 12 135 0 195 -4 203 -12z m1960 -1216 c8 -55 83 -52 -1267 -52 -957 0
-1250 3 -1259 12 -15 15 -15 41 0 56 9 9 299 11 1268 10 l1255 -3 3 -23z m0
-400 c8 -55 83 -52 -1267 -52 -957 0 -1250 3 -1259 12 -15 15 -15 41 0 56 9 9
299 11 1268 10 l1255 -3 3 -23z m-2 -397 c15 -58 94 -55 -1265 -55 -957 0
-1250 3 -1259 12 -7 7 -12 19 -12 28 0 9 5 21 12 28 9 9 304 12 1265 12 l1253
0 6 -25z"/>
<path d="M3402 4367 c-37 -39 -28 -88 20 -113 73 -38 146 58 88 116 -28 28
-81 26 -108 -3z"/>
<path d="M2210 3910 c-30 -30 -27 -83 6 -109 30 -24 43 -26 78 -10 33 15 50
57 37 92 -19 48 -85 63 -121 27z"/>
<path d="M2801 3734 c-27 -34 -26 -57 2 -90 46 -53 127 -26 127 43 0 70 -86
101 -129 47z"/>
<path d="M1611 3474 c-12 -15 -21 -38 -21 -51 0 -32 42 -73 75 -73 33 0 75 42
75 75 0 14 -11 37 -25 50 -33 34 -77 33 -104 -1z"/>
<path d="M3320 2965 l0 -545 135 0 135 0 0 545 0 545 -135 0 -135 0 0 -545z"/>
<path d="M2130 2795 l0 -375 135 0 135 0 0 375 0 375 -135 0 -135 0 0 -375z"/>
<path d="M2727 3033 c-4 -3 -7 -143 -7 -310 l0 -303 135 0 135 0 0 310 0 310
-128 0 c-71 0 -132 -3 -135 -7z"/>
<path d="M1530 2650 l0 -230 135 0 135 0 0 230 0 230 -135 0 -135 0 0 -230z"/>
</g>
</svg>
