<svg version="1.0" xmlns="http://www.w3.org/2000/svg"
 width="24.000000pt" height="24.000000pt" viewBox="0 0 512.000000 512.000000"
 preserveAspectRatio="xMidYMid meet">

<g transform="translate(0.000000,512.000000) scale(0.100000,-0.100000)"
fill="#4056A1" stroke="none">
<path d="M2025 4789 c-221 -43 -405 -163 -525 -340 -97 -141 -134 -268 -134
-449 -1 -225 75 -410 229 -565 154 -154 340 -230 565 -230 225 0 411 76 565
230 154 154 230 340 230 565 0 174 -36 297 -125 433 -112 173 -271 287 -480
344 -68 18 -258 25 -325 12z"/>
<path d="M1948 3025 c-412 -59 -773 -273 -1038 -616 -238 -308 -378 -689 -420
-1144 -17 -190 -27 -168 103 -230 426 -201 940 -347 1347 -384 172 -16 505
-10 524 10 3 2 23 83 46 179 l40 175 533 533 532 533 -39 72 c-244 456 -640
760 -1116 857 -136 28 -375 35 -512 15z"/>
<path d="M4251 2420 c-23 -5 -62 -20 -85 -34 -85 -50 -94 -33 156 -283 l226
-226 31 43 c92 128 75 308 -40 415 -27 26 -69 55 -92 65 -52 23 -138 31 -196
20z"/>
<path d="M3355 1600 l-620 -620 228 -227 227 -228 620 620 620 620 -228 228
-227 227 -620 -620z"/>
<path d="M2666 800 c-11 -30 -104 -445 -101 -448 4 -4 448 98 455 104 2 3 -75
84 -172 181 -120 120 -179 172 -182 163z"/>
</g>
</svg>
